<svg width="97" height="54" viewBox="0 0 97 54" fill="none" xmlns="http://www.w3.org/2000/svg">
<g filter="url(#filter0_d)">
<path d="M48.7404 21.3533C48.3224 20.7432 48.1225 20.022 48.1699 19.2962V16.3135C48.1699 15.3992 48.359 14.7044 48.7372 14.2291C49.1154 13.7537 49.7649 13.517 50.6858 13.5191C51.5512 13.5191 52.1654 13.7213 52.5287 14.1259C52.9249 14.6421 53.1176 15.2733 53.0735 15.91V16.6109H51.5255V15.9009C51.531 15.6685 51.516 15.4361 51.4807 15.2061C51.4584 15.0488 51.3804 14.9033 51.2595 14.7934C51.1006 14.675 50.9003 14.6175 50.6987 14.6326C50.4866 14.6176 50.2762 14.6782 50.1089 14.8025C49.9741 14.9243 49.8842 15.0838 49.8525 15.2576C49.8081 15.5011 49.7878 15.7479 49.7916 15.995V19.6147C49.7672 19.964 49.8355 20.3134 49.9904 20.6312C50.0673 20.7387 50.1743 20.824 50.2993 20.8775C50.4243 20.9311 50.5625 20.9508 50.6987 20.9346C50.897 20.9501 51.0937 20.8912 51.2467 20.7708C51.3728 20.6523 51.454 20.4976 51.4775 20.3308C51.5136 20.0907 51.5297 19.8482 51.5255 19.6056V18.8714H53.0735V19.5419C53.117 20.2056 52.9289 20.8644 52.5383 21.4171C52.1825 21.86 51.5768 22.0815 50.6858 22.0815C49.7949 22.0815 49.1218 21.8449 48.7404 21.3533Z" fill="#AFB1B8"/>
<path d="M55.1856 21.3837C54.7946 20.9194 54.5991 20.2428 54.5991 19.3477V16.2104C54.5991 15.3244 54.7946 14.6538 55.1856 14.1987C55.5766 13.7436 56.2304 13.517 57.147 13.5191C58.0572 13.5191 58.7078 13.7456 59.0988 14.1987C59.4898 14.6538 59.6885 15.3244 59.6885 16.2104V19.3477C59.6885 20.2337 59.4898 20.9134 59.0924 21.3806C58.695 21.8479 58.0476 22.0815 57.147 22.0815C56.2464 22.0815 55.5798 21.8449 55.1856 21.3837ZM57.8681 20.6312C58.0081 20.3404 58.0719 20.0219 58.054 19.7027V15.8615C58.072 15.5485 58.0093 15.2361 57.8713 14.9512C57.7928 14.8414 57.6832 14.7547 57.5551 14.7011C57.4271 14.6474 57.2856 14.629 57.147 14.6478C57.0079 14.6294 56.8662 14.6481 56.7377 14.7017C56.6093 14.7553 56.4991 14.8417 56.4195 14.9512C56.2786 15.2353 56.2147 15.5481 56.2336 15.8615V19.7209C56.2141 20.0402 56.278 20.3591 56.4195 20.6494C56.5097 20.7473 56.6211 20.8257 56.746 20.8795C56.8709 20.9332 57.0066 20.961 57.1438 20.961C57.281 20.961 57.4167 20.9332 57.5416 20.8795C57.6665 20.8257 57.7779 20.7473 57.8681 20.6494V20.6312Z" fill="#AFB1B8"/>
<path d="M61.5505 13.6106H63.2171L64.4702 19.3992L65.7522 13.6106H67.3739L67.5374 21.9658H66.3387L66.2105 16.159L64.9734 21.9658H64.0119L62.7299 16.1378L62.6114 21.9658H61.3999L61.5505 13.6106Z" fill="#AFB1B8"/>
<path d="M69.4061 13.6106H72.0021C73.4977 13.6106 74.2455 14.4014 74.2455 15.9831C74.2455 17.498 73.4581 18.2544 71.8835 18.2524H70.9989V21.9658H69.3965L69.4061 13.6106ZM71.6239 17.1814C71.7822 17.2005 71.943 17.1867 72.0952 17.1411C72.2474 17.0956 72.3873 17.0193 72.5052 16.9175C72.689 16.6353 72.77 16.3039 72.736 15.974C72.7444 15.7191 72.7185 15.4642 72.6591 15.2155C72.6362 15.1324 72.5961 15.0545 72.5411 14.9863C72.486 14.918 72.4172 14.8608 72.3386 14.8181C72.1161 14.7171 71.8702 14.6711 71.6239 14.6846H71.0021V17.1814H71.6239Z" fill="#AFB1B8"/>
<path d="M76.5559 13.6106H78.277L80.0428 21.9658H78.5494L78.2 20.0393H76.6649L76.3059 21.9658H74.79L76.5559 13.6106ZM78.027 19.0715L77.4277 15.5644L76.8283 19.0715H78.027Z" fill="#AFB1B8"/>
<path d="M81.469 13.6106H82.5908L84.7381 18.3768V13.6106H86.0681V21.9658H85.0009L82.8407 16.9903V21.9658H81.4658L81.469 13.6106Z" fill="#AFB1B8"/>
<path d="M89.1836 18.7801L87.3984 13.6223H88.9015L89.9912 16.9354L91.0136 13.6223H92.4846L90.7219 18.7801V21.9658H89.1836V18.7801Z" fill="#AFB1B8"/>
<path d="M51.2146 25.6189V26.0558H49.907V29.4509H49.3589V26.0558H48.0449V25.6189H51.2146Z" fill="#AFB1B8"/>
<path d="M55.3141 29.4512H54.891C54.8481 29.4537 54.8057 29.4407 54.7724 29.4148C54.7404 29.3925 54.7159 29.362 54.7019 29.3268L54.3238 28.4166H52.5097L52.1316 29.3268C52.1208 29.3649 52.1011 29.4001 52.0739 29.43C52.0403 29.4554 51.9982 29.4683 51.9553 29.4664H51.5322L53.1347 25.6345H53.6924L55.3141 29.4512ZM52.6604 28.0283H54.1731L53.5321 26.4688C53.4848 26.3509 53.4452 26.2303 53.4135 26.1078C53.3911 26.1806 53.3719 26.2504 53.3526 26.3111L53.295 26.4719L52.6604 28.0283Z" fill="#AFB1B8"/>
<path d="M58.0766 29.0748C58.177 29.0798 58.2775 29.0798 58.3779 29.0748C58.4645 29.0664 58.5503 29.0512 58.6343 29.0293C58.7128 29.0111 58.7899 28.9878 58.865 28.9595C58.9356 28.9322 59.0061 28.8988 59.0798 28.8655V28.0037H58.4388C58.4229 28.0046 58.4071 28.0023 58.3922 27.9971C58.3773 27.9919 58.3637 27.9838 58.3523 27.9734C58.3417 27.9648 58.3334 27.954 58.3279 27.9419C58.3223 27.9299 58.3197 27.9167 58.3202 27.9036V27.6093H59.5637V29.0779C59.4622 29.1466 59.355 29.2075 59.2432 29.2599C59.129 29.3133 59.0099 29.357 58.8875 29.3904C58.7564 29.4269 58.6224 29.4533 58.4869 29.4693C58.3315 29.4856 58.1753 29.4937 58.0189 29.4936C57.7425 29.4958 57.4683 29.4473 57.2113 29.351C56.9714 29.2596 56.7534 29.1234 56.5703 28.9504C56.3919 28.7757 56.2514 28.5695 56.1569 28.3436C56.0559 28.0896 56.0059 27.8199 56.0095 27.5486C56.0061 27.2755 56.055 27.0041 56.1537 26.7475C56.2459 26.5204 56.3866 26.3138 56.5671 26.1406C56.75 25.9682 56.9681 25.833 57.2081 25.7431C57.4825 25.6454 57.7738 25.597 58.067 25.6005C58.2162 25.6003 58.3652 25.6115 58.5125 25.6339C58.6428 25.654 58.7706 25.6865 58.8939 25.731C59.006 25.7709 59.1134 25.8217 59.2144 25.8827C59.3126 25.9426 59.4058 26.0095 59.4932 26.083L59.3394 26.3197C59.3273 26.3413 59.3094 26.3594 59.2874 26.3722C59.2654 26.3851 59.2402 26.392 59.2144 26.3925C59.1789 26.3914 59.1445 26.3809 59.115 26.3621C59.067 26.3379 59.0157 26.3075 58.958 26.2711C58.8898 26.2307 58.818 26.1961 58.7433 26.1679C58.6477 26.1317 58.5491 26.1032 58.4484 26.083C58.3142 26.0596 58.1779 26.0484 58.0414 26.0496C57.8299 26.0474 57.62 26.0834 57.4228 26.1558C57.2445 26.2235 57.0838 26.3271 56.9517 26.4592C56.8189 26.597 56.7174 26.7592 56.6536 26.9356C56.5105 27.3507 56.5105 27.7981 56.6536 28.2131C56.7238 28.3933 56.833 28.5576 56.9741 28.6955C57.1056 28.827 57.2651 28.9304 57.4421 28.999C57.6458 29.0652 57.8619 29.091 58.0766 29.0748Z" fill="#AFB1B8"/>
<path d="M63.1851 29.014H64.9351V29.4509H62.6499V25.6189H63.198L63.1851 29.014Z" fill="#AFB1B8"/>
<path d="M66.7556 29.4509H66.2075V25.6189H66.7556V29.4509Z" fill="#AFB1B8"/>
<path d="M68.7939 25.6371C68.8265 25.6547 68.8548 25.6785 68.8772 25.7069L71.22 28.5955C71.2168 28.5501 71.2168 28.5045 71.22 28.459C71.22 28.4165 71.22 28.374 71.22 28.3346V25.6038H71.6975V29.4512H71.4219C71.3811 29.4543 71.3401 29.447 71.3033 29.43C71.27 29.4109 71.2407 29.3862 71.2168 29.3571L68.8772 26.4716C68.8772 26.5171 68.8772 26.5595 68.8772 26.602C68.8772 26.6445 68.8772 26.684 68.8772 26.7204V29.4512H68.4189V25.6189H68.7042C68.7351 25.619 68.7657 25.6252 68.7939 25.6371Z" fill="#AFB1B8"/>
<path d="M75.7323 25.6189V26.0406H73.7901V27.3059H75.3637V27.7124H73.7901V29.0202H75.7323V29.4419H73.2261V25.6189H75.7323Z" fill="#AFB1B8"/>
<path d="M18.3035 1.95391L42.6385 8.49527V31.4173L18.3035 24.879V1.95391ZM16.7427 0V25.9925L44.196 33.3743V7.38482L16.7427 0Z" fill="#AFB1B8"/>
<path d="M31.4565 45.4402L4 38.0522V12.0625L31.4565 19.4474V45.4402Z" fill="#AFB1B8"/>
<path d="M17.1978 1.65958L41.2155 8.11891L31.0014 17.7912L6.98057 11.3288L17.1978 1.65958ZM16.7427 0L4 12.0631L31.4565 19.4478L44.196 7.38469L16.7427 0Z" fill="#AFB1B8"/>
<path d="M33.0015 43.978L44.1962 33.3774L33.0015 30.3647V43.978Z" fill="#AFB1B8"/>
</g>
<defs>
<filter id="filter0_d" x="0" y="0" width="96.4846" height="53.4402" filterUnits="userSpaceOnUse" color-interpolation-filters="sRGB">
<feFlood flood-opacity="0" result="BackgroundImageFix"/>
<feColorMatrix in="SourceAlpha" type="matrix" values="0 0 0 0 0 0 0 0 0 0 0 0 0 0 0 0 0 0 127 0"/>
<feOffset dy="4"/>
<feGaussianBlur stdDeviation="2"/>
<feColorMatrix type="matrix" values="0 0 0 0 0 0 0 0 0 0 0 0 0 0 0 0 0 0 0.25 0"/>
<feBlend mode="normal" in2="BackgroundImageFix" result="effect1_dropShadow"/>
<feBlend mode="normal" in="SourceGraphic" in2="effect1_dropShadow" result="shape"/>
</filter>
</defs>
</svg>
